<svg width="1216" height="1348" xmlns="http://www.w3.org/2000/svg" xmlns:xlink="http://www.w3.org/1999/xlink" xml:space="preserve" overflow="hidden"><defs><clipPath id="clip0"><rect x="1840" y="806" width="1216" height="1348"/></clipPath></defs><g clip-path="url(#clip0)" transform="translate(-1840 -806)"><path d="M2446 1106.5 2731.5 1249.25 2731.5 1623.75 2446 1766.5 2160.5 1623.75 2160.5 1249.25Z" stroke="#000000" stroke-width="4.58333" stroke-miterlimit="8" fill="#FFFFFF" fill-rule="evenodd"/><text fill="#2F5597" font-family="Berlin Sans FB Demi,Berlin Sans FB Demi_MSFontService,sans-serif" font-weight="600" font-size="642" transform="matrix(1 0 0 1 2225.47 1629)">A</text><path d="M2632.5 1591.5C2632.5 1578.8 2643.25 1568.5 2656.5 1568.5 2669.75 1568.5 2680.5 1578.8 2680.5 1591.5 2680.5 1604.2 2669.75 1614.5 2656.5 1614.5 2643.25 1614.5 2632.5 1604.2 2632.5 1591.5Z" stroke="#FFFFFF" stroke-width="4.58333" stroke-miterlimit="8" fill="#FFFFFF" fill-rule="evenodd"/><path d="M2491.5 1497.5C2491.5 1484.8 2502.25 1474.5 2515.5 1474.5 2528.75 1474.5 2539.5 1484.8 2539.5 1497.5 2539.5 1510.2 2528.75 1520.5 2515.5 1520.5 2502.25 1520.5 2491.5 1510.2 2491.5 1497.5Z" stroke="#FFFFFF" stroke-width="4.58333" stroke-miterlimit="8" fill="#FFFFFF" fill-rule="evenodd"/><path d="M2549.5 1454C2549.5 1441.02 2560.25 1430.5 2573.5 1430.5 2586.75 1430.5 2597.5 1441.02 2597.5 1454 2597.5 1466.98 2586.75 1477.5 2573.5 1477.5 2560.25 1477.5 2549.5 1466.98 2549.5 1454Z" stroke="#FFFFFF" stroke-width="4.58333" stroke-miterlimit="8" fill="#FFFFFF" fill-rule="evenodd"/><path d="M2274.5 1451.5C2274.5 1438.8 2285.25 1428.5 2298.5 1428.5 2311.75 1428.5 2322.5 1438.8 2322.5 1451.5 2322.5 1464.2 2311.75 1474.5 2298.5 1474.5 2285.25 1474.5 2274.5 1464.2 2274.5 1451.5Z" stroke="#FFFFFF" stroke-width="4.58333" stroke-miterlimit="8" fill="#FFFFFF" fill-rule="evenodd"/><path d="M2251.5 1585.5C2251.5 1572.8 2262.02 1562.5 2275 1562.5 2287.98 1562.5 2298.5 1572.8 2298.5 1585.5 2298.5 1598.2 2287.98 1608.5 2275 1608.5 2262.02 1608.5 2251.5 1598.2 2251.5 1585.5Z" stroke="#FFFFFF" stroke-width="4.58333" stroke-miterlimit="8" fill="#FFFFFF" fill-rule="evenodd"/><path d="M2515.5 1312.5C2515.5 1299.8 2526.25 1289.5 2539.5 1289.5 2552.75 1289.5 2563.5 1299.8 2563.5 1312.5 2563.5 1325.2 2552.75 1335.5 2539.5 1335.5 2526.25 1335.5 2515.5 1325.2 2515.5 1312.5Z" stroke="#FFFFFF" stroke-width="4.58333" stroke-miterlimit="8" fill="#FFFFFF" fill-rule="evenodd"/><path d="M2382.5 1240.5C2382.5 1227.8 2393.25 1217.5 2406.5 1217.5 2419.75 1217.5 2430.5 1227.8 2430.5 1240.5 2430.5 1253.2 2419.75 1263.5 2406.5 1263.5 2393.25 1263.5 2382.5 1253.2 2382.5 1240.5Z" stroke="#FFFFFF" stroke-width="4.58333" stroke-miterlimit="8" fill="#FFFFFF" fill-rule="evenodd"/><path d="M2376.5 1543.5C2376.5 1530.8 2387.24 1520.5 2400.5 1520.5 2413.75 1520.5 2424.5 1530.8 2424.5 1543.5 2424.5 1556.2 2413.75 1566.5 2400.5 1566.5 2387.24 1566.5 2376.5 1556.2 2376.5 1543.5Z" stroke="#FFFFFF" stroke-width="4.58333" stroke-miterlimit="8" fill="#FFFFFF" fill-rule="evenodd"/><path d="M2501.5 1250.5C2501.5 1237.8 2512.25 1227.5 2525.5 1227.5 2538.75 1227.5 2549.5 1237.8 2549.5 1250.5 2549.5 1263.2 2538.75 1273.5 2525.5 1273.5 2512.25 1273.5 2501.5 1263.2 2501.5 1250.5Z" stroke="#FFFFFF" stroke-width="4.58333" stroke-miterlimit="8" fill="#FFFFFF" fill-rule="evenodd"/><path d="M2443.5 1293.5C2443.5 1280.8 2454.24 1270.5 2467.5 1270.5 2480.75 1270.5 2491.5 1280.8 2491.5 1293.5 2491.5 1306.2 2480.75 1316.5 2467.5 1316.5 2454.24 1316.5 2443.5 1306.2 2443.5 1293.5Z" stroke="#FFFFFF" stroke-width="4.58333" stroke-miterlimit="8" fill="#FFFFFF" fill-rule="evenodd"/><path d="M2455.5 1198.5C2455.5 1185.8 2466.25 1175.5 2479.5 1175.5 2492.75 1175.5 2503.5 1185.8 2503.5 1198.5 2503.5 1211.2 2492.75 1221.5 2479.5 1221.5 2466.25 1221.5 2455.5 1211.2 2455.5 1198.5Z" stroke="#FFFFFF" stroke-width="4.58333" stroke-miterlimit="8" fill="#FFFFFF" fill-rule="evenodd"/><path d="M2481.5 1404C2481.5 1391.02 2492.02 1380.5 2505 1380.5 2517.98 1380.5 2528.5 1391.02 2528.5 1404 2528.5 1416.98 2517.98 1427.5 2505 1427.5 2492.02 1427.5 2481.5 1416.98 2481.5 1404Z" stroke="#FFFFFF" stroke-width="4.58333" stroke-miterlimit="8" fill="#FFFFFF" fill-rule="evenodd"/><path d="M2347.5 1422.5C2347.5 1409.8 2358.25 1399.5 2371.5 1399.5 2384.75 1399.5 2395.5 1409.8 2395.5 1422.5 2395.5 1435.2 2384.75 1445.5 2371.5 1445.5 2358.25 1445.5 2347.5 1435.2 2347.5 1422.5Z" stroke="#FFFFFF" stroke-width="4.58333" stroke-miterlimit="8" fill="#FFFFFF" fill-rule="evenodd"/><path d="M2593.5 1524.5C2593.5 1511.8 2604.02 1501.5 2617 1501.5 2629.98 1501.5 2640.5 1511.8 2640.5 1524.5 2640.5 1537.2 2629.98 1547.5 2617 1547.5 2604.02 1547.5 2593.5 1537.2 2593.5 1524.5Z" stroke="#FFFFFF" stroke-width="4.58333" stroke-miterlimit="8" fill="#FFFFFF" fill-rule="evenodd"/><path d="M2424.5 1481.5C2424.5 1468.8 2435.25 1458.5 2448.5 1458.5 2461.75 1458.5 2472.5 1468.8 2472.5 1481.5 2472.5 1494.2 2461.75 1504.5 2448.5 1504.5 2435.25 1504.5 2424.5 1494.2 2424.5 1481.5Z" stroke="#FFFFFF" stroke-width="4.58333" stroke-miterlimit="8" fill="#FFFFFF" fill-rule="evenodd"/><path d="M2294.5 1518.5C2294.5 1505.8 2305.25 1495.5 2318.5 1495.5 2331.75 1495.5 2342.5 1505.8 2342.5 1518.5 2342.5 1531.2 2331.75 1541.5 2318.5 1541.5 2305.25 1541.5 2294.5 1531.2 2294.5 1518.5Z" stroke="#FFFFFF" stroke-width="4.58333" stroke-miterlimit="8" fill="#FFFFFF" fill-rule="evenodd"/><path d="M2384.5 1325C2384.5 1312.02 2395.25 1301.5 2408.5 1301.5 2421.75 1301.5 2432.5 1312.02 2432.5 1325 2432.5 1337.98 2421.75 1348.5 2408.5 1348.5 2395.25 1348.5 2384.5 1337.98 2384.5 1325Z" stroke="#FFFFFF" stroke-width="4.58333" stroke-miterlimit="8" fill="#FFFFFF" fill-rule="evenodd"/></g></svg>